# xmcd CD database file
#
# Track frame offsets:
#	150
#	1251
#	17210
#	35834
#	36835
#	53565
#	73664
#	76381
#	95626
#	113495
#	114906
#	131608
#	153218
#	157263
#
# Disc length: 2321 seconds
#
# Revision: 0
# Processed by: cddbd v1.4PL0 Copyright (c) Steve Scherf et al.
# Submitted via: CDex 1.50
#
DISCID=ad090f0e
DTITLE=Neo, Oscar X and Manu - Gouda spoort nie...
DYEAR=2003
DGENRE=Nederhop
TTITLE0=Skit ( Intro )
TTITLE1=Geloof niet in de hype
TTITLE2=Altijd tijd
TTITLE3=Skit
TTITLE4=Dans 't van je af
TTITLE5=Lekker lang lekker
TTITLE6=Skit
TTITLE7=Drop 'm dan
TTITLE8=Gouda spoort nie...
TTITLE9=Skit
TTITLE10=Zoveel strakke flows
TTITLE11=Krachtig wapen
TTITLE12=Skit
TTITLE13=Bonustrack
EXTD=YEAR: 2003
EXTT0=
EXTT1=
EXTT2=
EXTT3=
EXTT4=
EXTT5=
EXTT6=
EXTT7=
EXTT8=
EXTT9=
EXTT10=
EXTT11=
EXTT12=
EXTT13=
PLAYORDER=
